<?xml version="1.0" encoding="utf-8" standalone="no"?>
<!DOCTYPE svg PUBLIC "-//W3C//DTD SVG 1.1//EN"
  "http://www.w3.org/Graphics/SVG/1.1/DTD/svg11.dtd">
<svg xmlns:xlink="http://www.w3.org/1999/xlink" width="510.105469pt" height="266.543063pt" viewBox="0 0 510.105469 266.543063" xmlns="http://www.w3.org/2000/svg" version="1.1">
 <metadata>
  <rdf:RDF xmlns:dc="http://purl.org/dc/elements/1.1/" xmlns:cc="http://creativecommons.org/ns#" xmlns:rdf="http://www.w3.org/1999/02/22-rdf-syntax-ns#">
   <cc:Work>
    <dc:type rdf:resource="http://purl.org/dc/dcmitype/StillImage"/>
    <dc:format>image/svg+xml</dc:format>
    <dc:creator>
     <cc:Agent>
      <dc:title>Matplotlib v3.11.2, https://matplotlib.org/</dc:title>
     </cc:Agent>
    </dc:creator>
   </cc:Work>
  </rdf:RDF>
 </metadata>
 <defs>
  <style type="text/css">*{stroke-linejoin: round; stroke-linecap: butt}</style>
 </defs>
 <g id="figure_1">
  <g id="patch_1">
   <path d="M 0 266.543063 
L 510.105469 266.543063 
L 510.105469 0 
L 0 0 
z
" style="fill: #ffffff"/>
  </g>
  <g id="axes_1">
   <g id="patch_2">
    <path d="M 52.905469 224.742281 
L 499.305469 224.742281 
L 499.305469 25.158281 
L 52.905469 25.158281 
z
" style="fill: #ffffff"/>
   </g>
   <g id="matplotlib.axis_1">
    <g id="xtick_1">
     <g id="line2d_1">
      <path d="M 73.196378 224.742281 
L 73.196378 25.158281 
" clip-path="url(#p327be96abf)" style="fill: none; stroke: #e5e7eb; stroke-width: 0.8; stroke-linecap: square"/>
     </g>
     <g id="line2d_2">
      <defs>
       <path id="m205da52ee2" d="M 0 0 
L 0 3.5 
" style="stroke: #000000; stroke-width: 0.8"/>
      </defs>
      <g>
       <use xlink:href="#m205da52ee2" x="73.196378" y="224.742281" style="stroke: #000000; stroke-width: 0.8"/>
      </g>
     </g>
     <g id="text_1">
      <!-- 0 -->
      <g transform="translate(70.015128 239.339938) scale(0.1 -0.1)">
       <defs>
        <path id="DejaVuSans-13" d="M 2034 4250 
Q 1547 4250 1301 3770 
Q 1056 3291 1056 2328 
Q 1056 1369 1301 889 
Q 1547 409 2034 409 
Q 2525 409 2770 889 
Q 3016 1369 3016 2328 
Q 3016 3291 2770 3770 
Q 2525 4250 2034 4250 
z
M 2034 4750 
Q 2819 4750 3233 4129 
Q 3647 3509 3647 2328 
Q 3647 1150 3233 529 
Q 2819 -91 2034 -91 
Q 1250 -91 836 529 
Q 422 1150 422 2328 
Q 422 3509 836 4129 
Q 1250 4750 2034 4750 
z
" transform="scale(0.015625)"/>
       </defs>
       <use xlink:href="#DejaVuSans-13"/>
      </g>
     </g>
    </g>
    <g id="xtick_2">
     <g id="line2d_3">
      <path d="M 140.832741 224.742281 
L 140.832741 25.158281 
" clip-path="url(#p327be96abf)" style="fill: none; stroke: #e5e7eb; stroke-width: 0.8; stroke-linecap: square"/>
     </g>
     <g id="line2d_4">
      <g>
       <use xlink:href="#m205da52ee2" x="140.832741" y="224.742281" style="stroke: #000000; stroke-width: 0.8"/>
      </g>
     </g>
     <g id="text_2">
      <!-- 2 -->
      <g transform="translate(137.651491 239.339938) scale(0.1 -0.1)">
       <defs>
        <path id="DejaVuSans-15" d="M 1228 531 
L 3431 531 
L 3431 0 
L 469 0 
L 469 531 
Q 828 903 1448 1529 
Q 2069 2156 2228 2338 
Q 2531 2678 2651 2914 
Q 2772 3150 2772 3378 
Q 2772 3750 2511 3984 
Q 2250 4219 1831 4219 
Q 1534 4219 1204 4116 
Q 875 4013 500 3803 
L 500 4441 
Q 881 4594 1212 4672 
Q 1544 4750 1819 4750 
Q 2544 4750 2975 4387 
Q 3406 4025 3406 3419 
Q 3406 3131 3298 2873 
Q 3191 2616 2906 2266 
Q 2828 2175 2409 1742 
Q 1991 1309 1228 531 
z
" transform="scale(0.015625)"/>
       </defs>
       <use xlink:href="#DejaVuSans-15"/>
      </g>
     </g>
    </g>
    <g id="xtick_3">
     <g id="line2d_5">
      <path d="M 208.469105 224.742281 
L 208.469105 25.158281 
" clip-path="url(#p327be96abf)" style="fill: none; stroke: #e5e7eb; stroke-width: 0.8; stroke-linecap: square"/>
     </g>
     <g id="line2d_6">
      <g>
       <use xlink:href="#m205da52ee2" x="208.469105" y="224.742281" style="stroke: #000000; stroke-width: 0.8"/>
      </g>
     </g>
     <g id="text_3">
      <!-- 4 -->
      <g transform="translate(205.287855 239.339938) scale(0.1 -0.1)">
       <defs>
        <path id="DejaVuSans-17" d="M 2419 4116 
L 825 1625 
L 2419 1625 
L 2419 4116 
z
M 2253 4666 
L 3047 4666 
L 3047 1625 
L 3713 1625 
L 3713 1100 
L 3047 1100 
L 3047 0 
L 2419 0 
L 2419 1100 
L 313 1100 
L 313 1709 
L 2253 4666 
z
" transform="scale(0.015625)"/>
       </defs>
       <use xlink:href="#DejaVuSans-17"/>
      </g>
     </g>
    </g>
    <g id="xtick_4">
     <g id="line2d_7">
      <path d="M 276.105469 224.742281 
L 276.105469 25.158281 
" clip-path="url(#p327be96abf)" style="fill: none; stroke: #e5e7eb; stroke-width: 0.8; stroke-linecap: square"/>
     </g>
     <g id="line2d_8">
      <g>
       <use xlink:href="#m205da52ee2" x="276.105469" y="224.742281" style="stroke: #000000; stroke-width: 0.8"/>
      </g>
     </g>
     <g id="text_4">
      <!-- 6 -->
      <g transform="translate(272.924219 239.339938) scale(0.1 -0.1)">
       <defs>
        <path id="DejaVuSans-19" d="M 2113 2584 
Q 1688 2584 1439 2293 
Q 1191 2003 1191 1497 
Q 1191 994 1439 701 
Q 1688 409 2113 409 
Q 2538 409 2786 701 
Q 3034 994 3034 1497 
Q 3034 2003 2786 2293 
Q 2538 2584 2113 2584 
z
M 3366 4563 
L 3366 3988 
Q 3128 4100 2886 4159 
Q 2644 4219 2406 4219 
Q 1781 4219 1451 3797 
Q 1122 3375 1075 2522 
Q 1259 2794 1537 2939 
Q 1816 3084 2150 3084 
Q 2853 3084 3261 2657 
Q 3669 2231 3669 1497 
Q 3669 778 3244 343 
Q 2819 -91 2113 -91 
Q 1303 -91 875 529 
Q 447 1150 447 2328 
Q 447 3434 972 4092 
Q 1497 4750 2381 4750 
Q 2619 4750 2861 4703 
Q 3103 4656 3366 4563 
z
" transform="scale(0.015625)"/>
       </defs>
       <use xlink:href="#DejaVuSans-19"/>
      </g>
     </g>
    </g>
    <g id="xtick_5">
     <g id="line2d_9">
      <path d="M 343.741832 224.742281 
L 343.741832 25.158281 
" clip-path="url(#p327be96abf)" style="fill: none; stroke: #e5e7eb; stroke-width: 0.8; stroke-linecap: square"/>
     </g>
     <g id="line2d_10">
      <g>
       <use xlink:href="#m205da52ee2" x="343.741832" y="224.742281" style="stroke: #000000; stroke-width: 0.8"/>
      </g>
     </g>
     <g id="text_5">
      <!-- 8 -->
      <g transform="translate(340.560582 239.339938) scale(0.1 -0.1)">
       <defs>
        <path id="DejaVuSans-1b" d="M 2034 2216 
Q 1584 2216 1326 1975 
Q 1069 1734 1069 1313 
Q 1069 891 1326 650 
Q 1584 409 2034 409 
Q 2484 409 2743 651 
Q 3003 894 3003 1313 
Q 3003 1734 2745 1975 
Q 2488 2216 2034 2216 
z
M 1403 2484 
Q 997 2584 770 2862 
Q 544 3141 544 3541 
Q 544 4100 942 4425 
Q 1341 4750 2034 4750 
Q 2731 4750 3128 4425 
Q 3525 4100 3525 3541 
Q 3525 3141 3298 2862 
Q 3072 2584 2669 2484 
Q 3125 2378 3379 2068 
Q 3634 1759 3634 1313 
Q 3634 634 3220 271 
Q 2806 -91 2034 -91 
Q 1263 -91 848 271 
Q 434 634 434 1313 
Q 434 1759 690 2068 
Q 947 2378 1403 2484 
z
M 1172 3481 
Q 1172 3119 1398 2916 
Q 1625 2713 2034 2713 
Q 2441 2713 2670 2916 
Q 2900 3119 2900 3481 
Q 2900 3844 2670 4047 
Q 2441 4250 2034 4250 
Q 1625 4250 1398 4047 
Q 1172 3844 1172 3481 
z
" transform="scale(0.015625)"/>
       </defs>
       <use xlink:href="#DejaVuSans-1b"/>
      </g>
     </g>
    </g>
    <g id="xtick_6">
     <g id="line2d_11">
      <path d="M 411.378196 224.742281 
L 411.378196 25.158281 
" clip-path="url(#p327be96abf)" style="fill: none; stroke: #e5e7eb; stroke-width: 0.8; stroke-linecap: square"/>
     </g>
     <g id="line2d_12">
      <g>
       <use xlink:href="#m205da52ee2" x="411.378196" y="224.742281" style="stroke: #000000; stroke-width: 0.8"/>
      </g>
     </g>
     <g id="text_6">
      <!-- 10 -->
      <g transform="translate(405.015696 239.339938) scale(0.1 -0.1)">
       <defs>
        <path id="DejaVuSans-14" d="M 794 531 
L 1825 531 
L 1825 4091 
L 703 3866 
L 703 4441 
L 1819 4666 
L 2450 4666 
L 2450 531 
L 3481 531 
L 3481 0 
L 794 0 
L 794 531 
z
" transform="scale(0.015625)"/>
       </defs>
       <use xlink:href="#DejaVuSans-14"/>
       <use xlink:href="#DejaVuSans-13" transform="translate(63.625 0)"/>
      </g>
     </g>
    </g>
    <g id="xtick_7">
     <g id="line2d_13">
      <path d="M 479.01456 224.742281 
L 479.01456 25.158281 
" clip-path="url(#p327be96abf)" style="fill: none; stroke: #e5e7eb; stroke-width: 0.8; stroke-linecap: square"/>
     </g>
     <g id="line2d_14">
      <g>
       <use xlink:href="#m205da52ee2" x="479.01456" y="224.742281" style="stroke: #000000; stroke-width: 0.8"/>
      </g>
     </g>
     <g id="text_7">
      <!-- 12 -->
      <g transform="translate(472.65206 239.339938) scale(0.1 -0.1)">
       <use xlink:href="#DejaVuSans-14"/>
       <use xlink:href="#DejaVuSans-15" transform="translate(63.625 0)"/>
      </g>
     </g>
    </g>
    <g id="text_8">
     <!-- waktu (detik) -->
     <g transform="translate(242.942187 253.340719) scale(0.1 -0.1)">
      <defs>
       <path id="DejaVuSans-5a" d="M 269 3500 
L 844 3500 
L 1563 769 
L 2278 3500 
L 2956 3500 
L 3675 769 
L 4391 3500 
L 4966 3500 
L 4050 0 
L 3372 0 
L 2619 2869 
L 1863 0 
L 1184 0 
L 269 3500 
z
" transform="scale(0.015625)"/>
       <path id="DejaVuSans-44" d="M 2194 1759 
Q 1497 1759 1228 1600 
Q 959 1441 959 1056 
Q 959 750 1161 570 
Q 1363 391 1709 391 
Q 2188 391 2477 730 
Q 2766 1069 2766 1631 
L 2766 1759 
L 2194 1759 
z
M 3341 1997 
L 3341 0 
L 2766 0 
L 2766 531 
Q 2569 213 2275 61 
Q 1981 -91 1556 -91 
Q 1019 -91 701 211 
Q 384 513 384 1019 
Q 384 1609 779 1909 
Q 1175 2209 1959 2209 
L 2766 2209 
L 2766 2266 
Q 2766 2663 2505 2880 
Q 2244 3097 1772 3097 
Q 1472 3097 1187 3025 
Q 903 2953 641 2809 
L 641 3341 
Q 956 3463 1253 3523 
Q 1550 3584 1831 3584 
Q 2591 3584 2966 3190 
Q 3341 2797 3341 1997 
z
" transform="scale(0.015625)"/>
       <path id="DejaVuSans-4e" d="M 581 4863 
L 1159 4863 
L 1159 1991 
L 2875 3500 
L 3609 3500 
L 1753 1863 
L 3688 0 
L 2938 0 
L 1159 1709 
L 1159 0 
L 581 0 
L 581 4863 
z
" transform="scale(0.015625)"/>
       <path id="DejaVuSans-57" d="M 1172 4494 
L 1172 3500 
L 2356 3500 
L 2356 3053 
L 1172 3053 
L 1172 1153 
Q 1172 725 1289 603 
Q 1406 481 1766 481 
L 2356 481 
L 2356 0 
L 1766 0 
Q 1100 0 847 248 
Q 594 497 594 1153 
L 594 3053 
L 172 3053 
L 172 3500 
L 594 3500 
L 594 4494 
L 1172 4494 
z
" transform="scale(0.015625)"/>
       <path id="DejaVuSans-58" d="M 544 1381 
L 544 3500 
L 1119 3500 
L 1119 1403 
Q 1119 906 1312 657 
Q 1506 409 1894 409 
Q 2359 409 2629 706 
Q 2900 1003 2900 1516 
L 2900 3500 
L 3475 3500 
L 3475 0 
L 2900 0 
L 2900 538 
Q 2691 219 2414 64 
Q 2138 -91 1772 -91 
Q 1169 -91 856 284 
Q 544 659 544 1381 
z
M 1991 3584 
L 1991 3584 
z
" transform="scale(0.015625)"/>
       <path id="DejaVuSans-3" transform="scale(0.015625)"/>
       <path id="DejaVuSans-b" d="M 1984 4856 
Q 1566 4138 1362 3434 
Q 1159 2731 1159 2009 
Q 1159 1288 1364 580 
Q 1569 -128 1984 -844 
L 1484 -844 
Q 1016 -109 783 600 
Q 550 1309 550 2009 
Q 550 2706 781 3412 
Q 1013 4119 1484 4856 
L 1984 4856 
z
" transform="scale(0.015625)"/>
       <path id="DejaVuSans-47" d="M 2906 2969 
L 2906 4863 
L 3481 4863 
L 3481 0 
L 2906 0 
L 2906 525 
Q 2725 213 2448 61 
Q 2172 -91 1784 -91 
Q 1150 -91 751 415 
Q 353 922 353 1747 
Q 353 2572 751 3078 
Q 1150 3584 1784 3584 
Q 2172 3584 2448 3432 
Q 2725 3281 2906 2969 
z
M 947 1747 
Q 947 1113 1208 752 
Q 1469 391 1925 391 
Q 2381 391 2643 752 
Q 2906 1113 2906 1747 
Q 2906 2381 2643 2742 
Q 2381 3103 1925 3103 
Q 1469 3103 1208 2742 
Q 947 2381 947 1747 
z
" transform="scale(0.015625)"/>
       <path id="DejaVuSans-48" d="M 3597 1894 
L 3597 1613 
L 953 1613 
Q 991 1019 1311 708 
Q 1631 397 2203 397 
Q 2534 397 2845 478 
Q 3156 559 3463 722 
L 3463 178 
Q 3153 47 2828 -22 
Q 2503 -91 2169 -91 
Q 1331 -91 842 396 
Q 353 884 353 1716 
Q 353 2575 817 3079 
Q 1281 3584 2069 3584 
Q 2775 3584 3186 3129 
Q 3597 2675 3597 1894 
z
M 3022 2063 
Q 3016 2534 2758 2815 
Q 2500 3097 2075 3097 
Q 1594 3097 1305 2825 
Q 1016 2553 972 2059 
L 3022 2063 
z
" transform="scale(0.015625)"/>
       <path id="DejaVuSans-4c" d="M 603 3500 
L 1178 3500 
L 1178 0 
L 603 0 
L 603 3500 
z
M 603 4863 
L 1178 4863 
L 1178 4134 
L 603 4134 
L 603 4863 
z
" transform="scale(0.015625)"/>
       <path id="DejaVuSans-c" d="M 513 4856 
L 1013 4856 
Q 1481 4119 1714 3412 
Q 1947 2706 1947 2009 
Q 1947 1309 1714 600 
Q 1481 -109 1013 -844 
L 513 -844 
Q 928 -128 1133 580 
Q 1338 1288 1338 2009 
Q 1338 2731 1133 3434 
Q 928 4138 513 4856 
z
" transform="scale(0.015625)"/>
      </defs>
      <use xlink:href="#DejaVuSans-5a"/>
      <use xlink:href="#DejaVuSans-44" transform="translate(81.78125 0)"/>
      <use xlink:href="#DejaVuSans-4e" transform="translate(143.0625 0)"/>
      <use xlink:href="#DejaVuSans-57" transform="translate(200.96875 0)"/>
      <use xlink:href="#DejaVuSans-58" transform="translate(240.171875 0)"/>
      <use xlink:href="#DejaVuSans-3" transform="translate(303.546875 0)"/>
      <use xlink:href="#DejaVuSans-b" transform="translate(335.328125 0)"/>
      <use xlink:href="#DejaVuSans-47" transform="translate(374.34375 0)"/>
      <use xlink:href="#DejaVuSans-48" transform="translate(437.828125 0)"/>
      <use xlink:href="#DejaVuSans-57" transform="translate(499.359375 0)"/>
      <use xlink:href="#DejaVuSans-4c" transform="translate(538.5625 0)"/>
      <use xlink:href="#DejaVuSans-4e" transform="translate(566.34375 0)"/>
      <use xlink:href="#DejaVuSans-c" transform="translate(624.25 0)"/>
     </g>
    </g>
   </g>
   <g id="matplotlib.axis_2">
    <g id="ytick_1">
     <g id="line2d_15">
      <path d="M 52.905469 215.670281 
L 499.305469 215.670281 
" clip-path="url(#p327be96abf)" style="fill: none; stroke: #e5e7eb; stroke-width: 0.8; stroke-linecap: square"/>
     </g>
     <g id="line2d_16">
      <defs>
       <path id="m6576ee80fb" d="M 0 0 
L -3.5 0 
" style="stroke: #000000; stroke-width: 0.8"/>
      </defs>
      <g>
       <use xlink:href="#m6576ee80fb" x="52.905469" y="215.670281" style="stroke: #000000; stroke-width: 0.8"/>
      </g>
     </g>
     <g id="text_9">
      <!-- −90 -->
      <g transform="translate(24.800781 219.469109) scale(0.1 -0.1)">
       <defs>
        <path id="DejaVuSans-c9c" d="M 678 2272 
L 4684 2272 
L 4684 1741 
L 678 1741 
L 678 2272 
z
" transform="scale(0.015625)"/>
        <path id="DejaVuSans-1c" d="M 703 97 
L 703 672 
Q 941 559 1184 500 
Q 1428 441 1663 441 
Q 2288 441 2617 861 
Q 2947 1281 2994 2138 
Q 2813 1869 2534 1725 
Q 2256 1581 1919 1581 
Q 1219 1581 811 2004 
Q 403 2428 403 3163 
Q 403 3881 828 4315 
Q 1253 4750 1959 4750 
Q 2769 4750 3195 4129 
Q 3622 3509 3622 2328 
Q 3622 1225 3098 567 
Q 2575 -91 1691 -91 
Q 1453 -91 1209 -44 
Q 966 3 703 97 
z
M 1959 2075 
Q 2384 2075 2632 2365 
Q 2881 2656 2881 3163 
Q 2881 3666 2632 3958 
Q 2384 4250 1959 4250 
Q 1534 4250 1286 3958 
Q 1038 3666 1038 3163 
Q 1038 2656 1286 2365 
Q 1534 2075 1959 2075 
z
" transform="scale(0.015625)"/>
       </defs>
       <use xlink:href="#DejaVuSans-c9c"/>
       <use xlink:href="#DejaVuSans-1c" transform="translate(83.796875 0)"/>
       <use xlink:href="#DejaVuSans-13" transform="translate(147.421875 0)"/>
      </g>
     </g>
    </g>
    <g id="ytick_2">
     <g id="line2d_17">
      <path d="M 52.905469 124.950281 
L 499.305469 124.950281 
" clip-path="url(#p327be96abf)" style="fill: none; stroke: #e5e7eb; stroke-width: 0.8; stroke-linecap: square"/>
     </g>
     <g id="line2d_18">
      <g>
       <use xlink:href="#m6576ee80fb" x="52.905469" y="124.950281" style="stroke: #000000; stroke-width: 0.8"/>
      </g>
     </g>
     <g id="text_10">
      <!-- 0 -->
      <g transform="translate(39.542969 128.749109) scale(0.1 -0.1)">
       <use xlink:href="#DejaVuSans-13"/>
      </g>
     </g>
    </g>
    <g id="ytick_3">
     <g id="line2d_19">
      <path d="M 52.905469 34.230281 
L 499.305469 34.230281 
" clip-path="url(#p327be96abf)" style="fill: none; stroke: #e5e7eb; stroke-width: 0.8; stroke-linecap: square"/>
     </g>
     <g id="line2d_20">
      <g>
       <use xlink:href="#m6576ee80fb" x="52.905469" y="34.230281" style="stroke: #000000; stroke-width: 0.8"/>
      </g>
     </g>
     <g id="text_11">
      <!-- 90 -->
      <g transform="translate(33.180469 38.029109) scale(0.1 -0.1)">
       <use xlink:href="#DejaVuSans-1c"/>
       <use xlink:href="#DejaVuSans-13" transform="translate(63.625 0)"/>
      </g>
     </g>
    </g>
    <g id="text_12">
     <!-- sudut (°) -->
     <g transform="translate(18.398438 147.017469) rotate(-90) scale(0.1 -0.1)">
      <defs>
       <path id="DejaVuSans-56" d="M 2834 3397 
L 2834 2853 
Q 2591 2978 2328 3040 
Q 2066 3103 1784 3103 
Q 1356 3103 1142 2972 
Q 928 2841 928 2578 
Q 928 2378 1081 2264 
Q 1234 2150 1697 2047 
L 1894 2003 
Q 2506 1872 2764 1633 
Q 3022 1394 3022 966 
Q 3022 478 2636 193 
Q 2250 -91 1575 -91 
Q 1294 -91 989 -36 
Q 684 19 347 128 
L 347 722 
Q 666 556 975 473 
Q 1284 391 1588 391 
Q 1994 391 2212 530 
Q 2431 669 2431 922 
Q 2431 1156 2273 1281 
Q 2116 1406 1581 1522 
L 1381 1569 
Q 847 1681 609 1914 
Q 372 2147 372 2553 
Q 372 3047 722 3315 
Q 1072 3584 1716 3584 
Q 2034 3584 2315 3537 
Q 2597 3491 2834 3397 
z
" transform="scale(0.015625)"/>
       <path id="DejaVuSans-72" d="M 1600 4347 
Q 1350 4347 1178 4173 
Q 1006 4000 1006 3750 
Q 1006 3503 1178 3333 
Q 1350 3163 1600 3163 
Q 1850 3163 2022 3333 
Q 2194 3503 2194 3750 
Q 2194 3997 2020 4172 
Q 1847 4347 1600 4347 
z
M 1600 4750 
Q 1800 4750 1984 4673 
Q 2169 4597 2303 4453 
Q 2447 4313 2519 4134 
Q 2591 3956 2591 3750 
Q 2591 3338 2302 3052 
Q 2013 2766 1594 2766 
Q 1172 2766 890 3047 
Q 609 3328 609 3750 
Q 609 4169 896 4459 
Q 1184 4750 1600 4750 
z
" transform="scale(0.015625)"/>
      </defs>
      <use xlink:href="#DejaVuSans-56"/>
      <use xlink:href="#DejaVuSans-58" transform="translate(52.09375 0)"/>
      <use xlink:href="#DejaVuSans-47" transform="translate(115.46875 0)"/>
      <use xlink:href="#DejaVuSans-58" transform="translate(178.953125 0)"/>
      <use xlink:href="#DejaVuSans-57" transform="translate(242.328125 0)"/>
      <use xlink:href="#DejaVuSans-3" transform="translate(281.53125 0)"/>
      <use xlink:href="#DejaVuSans-b" transform="translate(313.3125 0)"/>
      <use xlink:href="#DejaVuSans-72" transform="translate(352.328125 0)"/>
      <use xlink:href="#DejaVuSans-c" transform="translate(402.328125 0)"/>
     </g>
    </g>
   </g>
   <g id="line2d_21">
    <path d="M 73.196378 124.950281 
L 142.523651 124.954313 
L 144.21456 124.816217 
L 145.905469 124.431161 
L 147.596378 123.687257 
L 149.287287 122.477657 
L 150.978196 120.728777 
L 152.669105 118.382153 
L 154.360014 115.408553 
L 156.050923 111.808985 
L 157.741832 107.604617 
L 159.432741 102.849881 
L 161.123651 97.619369 
L 164.505469 86.131193 
L 169.578196 68.173673 
L 172.960014 57.211673 
L 174.650923 52.374281 
L 176.341832 48.078185 
L 178.032741 44.377817 
L 179.723651 41.304425 
L 181.41456 38.858009 
L 183.105469 37.016393 
L 184.796378 35.726153 
L 186.487287 34.911689 
L 188.178196 34.477241 
L 189.869105 34.310921 
L 198.323651 34.289753 
L 296.396378 34.351241 
L 298.087287 34.520585 
L 299.778196 34.850201 
L 301.469105 35.397545 
L 303.160014 36.205961 
L 304.850923 37.325849 
L 306.541832 38.791481 
L 308.232741 40.640153 
L 309.923651 42.900089 
L 311.61456 45.591449 
L 313.305469 48.726329 
L 314.996378 52.318841 
L 316.687287 56.364953 
L 318.378196 60.859625 
L 320.069105 65.787737 
L 321.760014 71.130137 
L 325.141832 82.943897 
L 328.523651 96.013625 
L 333.596378 117.154409 
L 340.360014 145.928777 
L 343.741832 159.561977 
L 347.123651 172.142825 
L 350.505469 183.336665 
L 352.196378 188.333321 
L 353.887287 192.896537 
L 355.578196 197.013209 
L 357.269105 200.676281 
L 358.960014 203.883737 
L 360.650923 206.646665 
L 362.341832 208.971113 
L 364.032741 210.883289 
L 365.723651 212.409401 
L 367.41456 213.579689 
L 369.105469 214.436489 
L 370.796378 215.021129 
L 372.487287 215.381993 
L 374.178196 215.572505 
L 377.560014 215.658185 
L 479.01456 215.635001 
L 479.01456 215.635001 
" clip-path="url(#p327be96abf)" style="fill: none; stroke: #2563eb; stroke-width: 1.8; stroke-linecap: square"/>
   </g>
   <g id="line2d_22">
    <path d="M 73.196378 124.950281 
L 142.523651 124.928105 
L 144.21456 124.774889 
L 145.905469 124.364633 
L 147.596378 123.584441 
L 149.287287 122.334521 
L 150.978196 120.538265 
L 152.669105 118.141241 
L 154.360014 115.117241 
L 156.050923 111.466265 
L 157.741832 107.214521 
L 159.432741 102.416441 
L 161.123651 97.148633 
L 164.505469 85.616105 
L 169.578196 67.669673 
L 172.960014 56.764121 
L 174.650923 51.966041 
L 176.341832 47.714297 
L 178.032741 44.063321 
L 179.723651 41.039321 
L 181.41456 38.642297 
L 183.105469 36.846041 
L 184.796378 35.596121 
L 186.487287 34.815929 
L 188.178196 34.405673 
L 189.869105 34.252457 
L 200.01456 34.230281 
L 296.396378 34.306889 
L 298.087287 34.486313 
L 299.778196 34.834073 
L 301.469105 35.400569 
L 303.160014 36.235193 
L 304.850923 37.381289 
L 306.541832 38.879177 
L 308.232741 40.761113 
L 309.923651 43.054313 
L 311.61456 45.781961 
L 313.305469 48.956153 
L 314.996378 52.584953 
L 316.687287 56.668361 
L 318.378196 61.198313 
L 320.069105 66.162713 
L 321.760014 71.538377 
L 325.141832 83.409593 
L 328.523651 96.523673 
L 333.596378 117.701753 
L 340.360014 146.467049 
L 343.741832 160.067993 
L 347.123651 172.602473 
L 350.505469 183.737849 
L 352.196378 188.702249 
L 353.887287 193.232201 
L 355.578196 197.315609 
L 357.269105 200.944409 
L 358.960014 204.118601 
L 360.650923 206.846249 
L 362.341832 209.139449 
L 364.032741 211.021385 
L 365.723651 212.519273 
L 367.41456 213.665369 
L 369.105469 214.499993 
L 370.796378 215.066489 
L 372.487287 215.414249 
L 374.178196 215.593673 
L 377.560014 215.670281 
L 479.01456 215.670281 
L 479.01456 215.670281 
" clip-path="url(#p327be96abf)" style="fill: none; stroke-dasharray: 5.18,2.24; stroke-dashoffset: 0; stroke: #111827; stroke-width: 1.4"/>
   </g>
   <g id="patch_3">
    <path d="M 52.905469 224.742281 
L 52.905469 25.158281 
" style="fill: none; stroke: #9ca3af; stroke-width: 0.8; stroke-linejoin: miter; stroke-linecap: square"/>
   </g>
   <g id="patch_4">
    <path d="M 52.905469 224.742281 
L 499.305469 224.742281 
" style="fill: none; stroke: #9ca3af; stroke-width: 0.8; stroke-linejoin: miter; stroke-linecap: square"/>
   </g>
   <g id="text_13">
    <!-- belok kanan 90° -->
    <g transform="translate(194.941832 51.908719) scale(0.1 -0.1)">
     <defs>
      <path id="DejaVuSans-45" d="M 3116 1747 
Q 3116 2381 2855 2742 
Q 2594 3103 2138 3103 
Q 1681 3103 1420 2742 
Q 1159 2381 1159 1747 
Q 1159 1113 1420 752 
Q 1681 391 2138 391 
Q 2594 391 2855 752 
Q 3116 1113 3116 1747 
z
M 1159 2969 
Q 1341 3281 1617 3432 
Q 1894 3584 2278 3584 
Q 2916 3584 3314 3078 
Q 3713 2572 3713 1747 
Q 3713 922 3314 415 
Q 2916 -91 2278 -91 
Q 1894 -91 1617 61 
Q 1341 213 1159 525 
L 1159 0 
L 581 0 
L 581 4863 
L 1159 4863 
L 1159 2969 
z
" transform="scale(0.015625)"/>
      <path id="DejaVuSans-4f" d="M 603 4863 
L 1178 4863 
L 1178 0 
L 603 0 
L 603 4863 
z
" transform="scale(0.015625)"/>
      <path id="DejaVuSans-52" d="M 1959 3097 
Q 1497 3097 1228 2736 
Q 959 2375 959 1747 
Q 959 1119 1226 758 
Q 1494 397 1959 397 
Q 2419 397 2687 759 
Q 2956 1122 2956 1747 
Q 2956 2369 2687 2733 
Q 2419 3097 1959 3097 
z
M 1959 3584 
Q 2709 3584 3137 3096 
Q 3566 2609 3566 1747 
Q 3566 888 3137 398 
Q 2709 -91 1959 -91 
Q 1206 -91 779 398 
Q 353 888 353 1747 
Q 353 2609 779 3096 
Q 1206 3584 1959 3584 
z
" transform="scale(0.015625)"/>
      <path id="DejaVuSans-51" d="M 3513 2113 
L 3513 0 
L 2938 0 
L 2938 2094 
Q 2938 2591 2744 2837 
Q 2550 3084 2163 3084 
Q 1697 3084 1428 2787 
Q 1159 2491 1159 1978 
L 1159 0 
L 581 0 
L 581 3500 
L 1159 3500 
L 1159 2956 
Q 1366 3272 1645 3428 
Q 1925 3584 2291 3584 
Q 2894 3584 3203 3211 
Q 3513 2838 3513 2113 
z
" transform="scale(0.015625)"/>
     </defs>
     <use xlink:href="#DejaVuSans-45"/>
     <use xlink:href="#DejaVuSans-48" transform="translate(63.484375 0)"/>
     <use xlink:href="#DejaVuSans-4f" transform="translate(125.015625 0)"/>
     <use xlink:href="#DejaVuSans-52" transform="translate(152.796875 0)"/>
     <use xlink:href="#DejaVuSans-4e" transform="translate(213.984375 0)"/>
     <use xlink:href="#DejaVuSans-3" transform="translate(271.890625 0)"/>
     <use xlink:href="#DejaVuSans-4e" transform="translate(303.671875 0)"/>
     <use xlink:href="#DejaVuSans-44" transform="translate(359.828125 0)"/>
     <use xlink:href="#DejaVuSans-51" transform="translate(421.109375 0)"/>
     <use xlink:href="#DejaVuSans-44" transform="translate(484.484375 0)"/>
     <use xlink:href="#DejaVuSans-51" transform="translate(545.765625 0)"/>
     <use xlink:href="#DejaVuSans-3" transform="translate(609.140625 0)"/>
     <use xlink:href="#DejaVuSans-1c" transform="translate(640.921875 0)"/>
     <use xlink:href="#DejaVuSans-13" transform="translate(704.546875 0)"/>
     <use xlink:href="#DejaVuSans-72" transform="translate(768.171875 0)"/>
    </g>
   </g>
   <g id="text_14">
    <!-- belok kiri 180° -->
    <g transform="translate(384.323651 203.187938) scale(0.1 -0.1)">
     <defs>
      <path id="DejaVuSans-55" d="M 2631 2963 
Q 2534 3019 2420 3045 
Q 2306 3072 2169 3072 
Q 1681 3072 1420 2755 
Q 1159 2438 1159 1844 
L 1159 0 
L 581 0 
L 581 3500 
L 1159 3500 
L 1159 2956 
Q 1341 3275 1631 3429 
Q 1922 3584 2338 3584 
Q 2397 3584 2469 3576 
Q 2541 3569 2628 3553 
L 2631 2963 
z
" transform="scale(0.015625)"/>
     </defs>
     <use xlink:href="#DejaVuSans-45"/>
     <use xlink:href="#DejaVuSans-48" transform="translate(63.484375 0)"/>
     <use xlink:href="#DejaVuSans-4f" transform="translate(125.015625 0)"/>
     <use xlink:href="#DejaVuSans-52" transform="translate(152.796875 0)"/>
     <use xlink:href="#DejaVuSans-4e" transform="translate(213.984375 0)"/>
     <use xlink:href="#DejaVuSans-3" transform="translate(271.890625 0)"/>
     <use xlink:href="#DejaVuSans-4e" transform="translate(303.671875 0)"/>
     <use xlink:href="#DejaVuSans-4c" transform="translate(361.578125 0)"/>
     <use xlink:href="#DejaVuSans-55" transform="translate(389.359375 0)"/>
     <use xlink:href="#DejaVuSans-4c" transform="translate(430.46875 0)"/>
     <use xlink:href="#DejaVuSans-3" transform="translate(458.25 0)"/>
     <use xlink:href="#DejaVuSans-14" transform="translate(490.03125 0)"/>
     <use xlink:href="#DejaVuSans-1b" transform="translate(553.65625 0)"/>
     <use xlink:href="#DejaVuSans-13" transform="translate(617.28125 0)"/>
     <use xlink:href="#DejaVuSans-72" transform="translate(680.90625 0)"/>
    </g>
   </g>
   <g id="patch_5">
    <path d="M 434.269819 170.845849 
Q 455.936225 192.53376 476.812454 213.43071 
" style="fill: none; stroke: #2563eb; stroke-linecap: round"/>
    <path d="M 475.541556 209.611703 
L 476.812454 213.43071 
L 472.99471 212.156024 
" style="fill: none; stroke: #2563eb; stroke-linecap: round"/>
   </g>
   <g id="text_15">
    <!-- arah() = 270,0° (Barat) -->
    <g style="fill: #2563eb" transform="translate(373.713153 165.270281) scale(0.09 -0.09)">
     <defs>
      <path id="DejaVuSans-4b" d="M 3513 2113 
L 3513 0 
L 2938 0 
L 2938 2094 
Q 2938 2591 2744 2837 
Q 2550 3084 2163 3084 
Q 1697 3084 1428 2787 
Q 1159 2491 1159 1978 
L 1159 0 
L 581 0 
L 581 4863 
L 1159 4863 
L 1159 2956 
Q 1366 3272 1645 3428 
Q 1925 3584 2291 3584 
Q 2894 3584 3203 3211 
Q 3513 2838 3513 2113 
z
" transform="scale(0.015625)"/>
      <path id="DejaVuSans-20" d="M 678 2906 
L 4684 2906 
L 4684 2381 
L 678 2381 
L 678 2906 
z
M 678 1631 
L 4684 1631 
L 4684 1100 
L 678 1100 
L 678 1631 
z
" transform="scale(0.015625)"/>
      <path id="DejaVuSans-1a" d="M 525 4666 
L 3525 4666 
L 3525 4397 
L 1831 0 
L 1172 0 
L 2766 4134 
L 525 4134 
L 525 4666 
z
" transform="scale(0.015625)"/>
      <path id="DejaVuSans-f" d="M 750 794 
L 1409 794 
L 1409 256 
L 897 -744 
L 494 -744 
L 750 256 
L 750 794 
z
" transform="scale(0.015625)"/>
      <path id="DejaVuSans-25" d="M 1259 2228 
L 1259 519 
L 2272 519 
Q 2781 519 3026 730 
Q 3272 941 3272 1375 
Q 3272 1813 3026 2020 
Q 2781 2228 2272 2228 
L 1259 2228 
z
M 1259 4147 
L 1259 2741 
L 2194 2741 
Q 2656 2741 2882 2914 
Q 3109 3088 3109 3444 
Q 3109 3797 2882 3972 
Q 2656 4147 2194 4147 
L 1259 4147 
z
M 628 4666 
L 2241 4666 
Q 2963 4666 3353 4366 
Q 3744 4066 3744 3513 
Q 3744 3084 3544 2831 
Q 3344 2578 2956 2516 
Q 3422 2416 3680 2098 
Q 3938 1781 3938 1306 
Q 3938 681 3513 340 
Q 3088 0 2303 0 
L 628 0 
L 628 4666 
z
" transform="scale(0.015625)"/>
     </defs>
     <use xlink:href="#DejaVuSans-44"/>
     <use xlink:href="#DejaVuSans-55" transform="translate(61.28125 0)"/>
     <use xlink:href="#DejaVuSans-44" transform="translate(102.390625 0)"/>
     <use xlink:href="#DejaVuSans-4b" transform="translate(163.671875 0)"/>
     <use xlink:href="#DejaVuSans-b" transform="translate(227.046875 0)"/>
     <use xlink:href="#DejaVuSans-c" transform="translate(266.0625 0)"/>
     <use xlink:href="#DejaVuSans-3" transform="translate(305.078125 0)"/>
     <use xlink:href="#DejaVuSans-20" transform="translate(336.859375 0)"/>
     <use xlink:href="#DejaVuSans-3" transform="translate(420.65625 0)"/>
     <use xlink:href="#DejaVuSans-15" transform="translate(452.4375 0)"/>
     <use xlink:href="#DejaVuSans-1a" transform="translate(516.0625 0)"/>
     <use xlink:href="#DejaVuSans-13" transform="translate(579.6875 0)"/>
     <use xlink:href="#DejaVuSans-f" transform="translate(643.3125 0)"/>
     <use xlink:href="#DejaVuSans-13" transform="translate(675.09375 0)"/>
     <use xlink:href="#DejaVuSans-72" transform="translate(738.71875 0)"/>
     <use xlink:href="#DejaVuSans-3" transform="translate(788.71875 0)"/>
     <use xlink:href="#DejaVuSans-b" transform="translate(820.5 0)"/>
     <use xlink:href="#DejaVuSans-25" transform="translate(859.515625 0)"/>
     <use xlink:href="#DejaVuSans-44" transform="translate(928.125 0)"/>
     <use xlink:href="#DejaVuSans-55" transform="translate(989.40625 0)"/>
     <use xlink:href="#DejaVuSans-44" transform="translate(1030.515625 0)"/>
     <use xlink:href="#DejaVuSans-57" transform="translate(1091.796875 0)"/>
     <use xlink:href="#DejaVuSans-c" transform="translate(1131 0)"/>
    </g>
   </g>
   <g id="text_16">
    <!-- Belok 90° kanan lalu 180° kiri: selisih terbesar 0,5° -->
    <g transform="translate(52.905469 19.158281) scale(0.11 -0.11)">
     <defs>
      <path id="DejaVuSans-Bold-25" d="M 2456 2859 
Q 2741 2859 2887 2984 
Q 3034 3109 3034 3353 
Q 3034 3594 2887 3720 
Q 2741 3847 2456 3847 
L 1791 3847 
L 1791 2859 
L 2456 2859 
z
M 2497 819 
Q 2859 819 3042 972 
Q 3225 1125 3225 1434 
Q 3225 1738 3044 1889 
Q 2863 2041 2497 2041 
L 1791 2041 
L 1791 819 
L 2497 819 
z
M 3616 2497 
Q 4003 2384 4215 2081 
Q 4428 1778 4428 1338 
Q 4428 663 3972 331 
Q 3516 0 2584 0 
L 588 0 
L 588 4666 
L 2394 4666 
Q 3366 4666 3802 4372 
Q 4238 4078 4238 3431 
Q 4238 3091 4078 2852 
Q 3919 2613 3616 2497 
z
" transform="scale(0.015625)"/>
      <path id="DejaVuSans-Bold-48" d="M 4031 1759 
L 4031 1441 
L 1416 1441 
Q 1456 1047 1700 850 
Q 1944 653 2381 653 
Q 2734 653 3104 758 
Q 3475 863 3866 1075 
L 3866 213 
Q 3469 63 3072 -14 
Q 2675 -91 2278 -91 
Q 1328 -91 801 392 
Q 275 875 275 1747 
Q 275 2603 792 3093 
Q 1309 3584 2216 3584 
Q 3041 3584 3536 3087 
Q 4031 2591 4031 1759 
z
M 2881 2131 
Q 2881 2450 2695 2645 
Q 2509 2841 2209 2841 
Q 1884 2841 1681 2658 
Q 1478 2475 1428 2131 
L 2881 2131 
z
" transform="scale(0.015625)"/>
      <path id="DejaVuSans-Bold-4f" d="M 538 4863 
L 1656 4863 
L 1656 0 
L 538 0 
L 538 4863 
z
" transform="scale(0.015625)"/>
      <path id="DejaVuSans-Bold-52" d="M 2203 2784 
Q 1831 2784 1636 2517 
Q 1441 2250 1441 1747 
Q 1441 1244 1636 976 
Q 1831 709 2203 709 
Q 2569 709 2762 976 
Q 2956 1244 2956 1747 
Q 2956 2250 2762 2517 
Q 2569 2784 2203 2784 
z
M 2203 3584 
Q 3106 3584 3614 3096 
Q 4122 2609 4122 1747 
Q 4122 884 3614 396 
Q 3106 -91 2203 -91 
Q 1297 -91 786 396 
Q 275 884 275 1747 
Q 275 2609 786 3096 
Q 1297 3584 2203 3584 
z
" transform="scale(0.015625)"/>
      <path id="DejaVuSans-Bold-4e" d="M 538 4863 
L 1656 4863 
L 1656 2216 
L 2944 3500 
L 4244 3500 
L 2534 1894 
L 4378 0 
L 3022 0 
L 1656 1459 
L 1656 0 
L 538 0 
L 538 4863 
z
" transform="scale(0.015625)"/>
      <path id="DejaVuSans-Bold-3" transform="scale(0.015625)"/>
      <path id="DejaVuSans-Bold-1c" d="M 641 103 
L 641 966 
Q 928 831 1190 764 
Q 1453 697 1709 697 
Q 2247 697 2547 995 
Q 2847 1294 2900 1881 
Q 2688 1725 2447 1647 
Q 2206 1569 1925 1569 
Q 1209 1569 770 1986 
Q 331 2403 331 3084 
Q 331 3838 820 4291 
Q 1309 4744 2131 4744 
Q 3044 4744 3544 4128 
Q 4044 3513 4044 2388 
Q 4044 1231 3459 570 
Q 2875 -91 1856 -91 
Q 1528 -91 1228 -42 
Q 928 6 641 103 
z
M 2125 2350 
Q 2441 2350 2600 2554 
Q 2759 2759 2759 3169 
Q 2759 3575 2600 3781 
Q 2441 3988 2125 3988 
Q 1809 3988 1650 3781 
Q 1491 3575 1491 3169 
Q 1491 2759 1650 2554 
Q 1809 2350 2125 2350 
z
" transform="scale(0.015625)"/>
      <path id="DejaVuSans-Bold-13" d="M 2944 2338 
Q 2944 3213 2780 3570 
Q 2616 3928 2228 3928 
Q 1841 3928 1675 3570 
Q 1509 3213 1509 2338 
Q 1509 1453 1675 1090 
Q 1841 728 2228 728 
Q 2613 728 2778 1090 
Q 2944 1453 2944 2338 
z
M 4147 2328 
Q 4147 1169 3647 539 
Q 3147 -91 2228 -91 
Q 1306 -91 806 539 
Q 306 1169 306 2328 
Q 306 3491 806 4120 
Q 1306 4750 2228 4750 
Q 3147 4750 3647 4120 
Q 4147 3491 4147 2328 
z
" transform="scale(0.015625)"/>
      <path id="DejaVuSans-Bold-72" d="M 1600 4288 
Q 1375 4288 1219 4131 
Q 1063 3975 1063 3750 
Q 1063 3525 1217 3372 
Q 1372 3219 1600 3219 
Q 1825 3219 1981 3373 
Q 2138 3528 2138 3750 
Q 2138 3975 1980 4131 
Q 1822 4288 1600 4288 
z
M 1600 4794 
Q 1806 4794 1997 4714 
Q 2188 4634 2338 4488 
Q 2484 4338 2561 4150 
Q 2638 3963 2638 3750 
Q 2638 3541 2561 3352 
Q 2484 3163 2344 3022 
Q 2194 2872 2000 2792 
Q 1806 2713 1594 2713 
Q 1153 2713 854 3011 
Q 556 3309 556 3750 
Q 556 4191 857 4492 
Q 1159 4794 1600 4794 
z
" transform="scale(0.015625)"/>
      <path id="DejaVuSans-Bold-44" d="M 2106 1575 
Q 1756 1575 1579 1456 
Q 1403 1338 1403 1106 
Q 1403 894 1545 773 
Q 1688 653 1941 653 
Q 2256 653 2472 879 
Q 2688 1106 2688 1447 
L 2688 1575 
L 2106 1575 
z
M 3816 1997 
L 3816 0 
L 2688 0 
L 2688 519 
Q 2463 200 2181 54 
Q 1900 -91 1497 -91 
Q 953 -91 614 226 
Q 275 544 275 1050 
Q 275 1666 698 1953 
Q 1122 2241 2028 2241 
L 2688 2241 
L 2688 2328 
Q 2688 2594 2478 2717 
Q 2269 2841 1825 2841 
Q 1466 2841 1156 2769 
Q 847 2697 581 2553 
L 581 3406 
Q 941 3494 1303 3539 
Q 1666 3584 2028 3584 
Q 2975 3584 3395 3211 
Q 3816 2838 3816 1997 
z
" transform="scale(0.015625)"/>
      <path id="DejaVuSans-Bold-51" d="M 4056 2131 
L 4056 0 
L 2931 0 
L 2931 347 
L 2931 1631 
Q 2931 2084 2911 2256 
Q 2891 2428 2841 2509 
Q 2775 2619 2662 2680 
Q 2550 2741 2406 2741 
Q 2056 2741 1856 2470 
Q 1656 2200 1656 1722 
L 1656 0 
L 538 0 
L 538 3500 
L 1656 3500 
L 1656 2988 
Q 1909 3294 2193 3439 
Q 2478 3584 2822 3584 
Q 3428 3584 3742 3212 
Q 4056 2841 4056 2131 
z
" transform="scale(0.015625)"/>
      <path id="DejaVuSans-Bold-58" d="M 500 1363 
L 500 3500 
L 1625 3500 
L 1625 3150 
Q 1625 2866 1622 2436 
Q 1619 2006 1619 1863 
Q 1619 1441 1641 1255 
Q 1663 1069 1716 984 
Q 1784 875 1895 815 
Q 2006 756 2150 756 
Q 2500 756 2700 1025 
Q 2900 1294 2900 1772 
L 2900 3500 
L 4019 3500 
L 4019 0 
L 2900 0 
L 2900 506 
Q 2647 200 2364 54 
Q 2081 -91 1741 -91 
Q 1134 -91 817 281 
Q 500 653 500 1363 
z
" transform="scale(0.015625)"/>
      <path id="DejaVuSans-Bold-14" d="M 750 831 
L 1813 831 
L 1813 3847 
L 722 3622 
L 722 4441 
L 1806 4666 
L 2950 4666 
L 2950 831 
L 4013 831 
L 4013 0 
L 750 0 
L 750 831 
z
" transform="scale(0.015625)"/>
      <path id="DejaVuSans-Bold-1b" d="M 2228 2088 
Q 1891 2088 1709 1903 
Q 1528 1719 1528 1375 
Q 1528 1031 1709 848 
Q 1891 666 2228 666 
Q 2563 666 2741 848 
Q 2919 1031 2919 1375 
Q 2919 1722 2741 1905 
Q 2563 2088 2228 2088 
z
M 1350 2484 
Q 925 2613 709 2878 
Q 494 3144 494 3541 
Q 494 4131 934 4440 
Q 1375 4750 2228 4750 
Q 3075 4750 3515 4442 
Q 3956 4134 3956 3541 
Q 3956 3144 3739 2878 
Q 3522 2613 3097 2484 
Q 3572 2353 3814 2058 
Q 4056 1763 4056 1313 
Q 4056 619 3595 264 
Q 3134 -91 2228 -91 
Q 1319 -91 855 264 
Q 391 619 391 1313 
Q 391 1763 633 2058 
Q 875 2353 1350 2484 
z
M 1631 3419 
Q 1631 3141 1786 2991 
Q 1941 2841 2228 2841 
Q 2509 2841 2662 2991 
Q 2816 3141 2816 3419 
Q 2816 3697 2662 3845 
Q 2509 3994 2228 3994 
Q 1941 3994 1786 3844 
Q 1631 3694 1631 3419 
z
" transform="scale(0.015625)"/>
      <path id="DejaVuSans-Bold-4c" d="M 538 3500 
L 1656 3500 
L 1656 0 
L 538 0 
L 538 3500 
z
M 538 4863 
L 1656 4863 
L 1656 3950 
L 538 3950 
L 538 4863 
z
" transform="scale(0.015625)"/>
      <path id="DejaVuSans-Bold-55" d="M 3138 2547 
Q 2991 2616 2845 2648 
Q 2700 2681 2553 2681 
Q 2122 2681 1889 2404 
Q 1656 2128 1656 1613 
L 1656 0 
L 538 0 
L 538 3500 
L 1656 3500 
L 1656 2925 
Q 1872 3269 2151 3426 
Q 2431 3584 2822 3584 
Q 2878 3584 2943 3579 
Q 3009 3575 3134 3559 
L 3138 2547 
z
" transform="scale(0.015625)"/>
      <path id="DejaVuSans-Bold-1d" d="M 716 3500 
L 1844 3500 
L 1844 2291 
L 716 2291 
L 716 3500 
z
M 716 1209 
L 1844 1209 
L 1844 0 
L 716 0 
L 716 1209 
z
" transform="scale(0.015625)"/>
      <path id="DejaVuSans-Bold-56" d="M 3272 3391 
L 3272 2541 
Q 2913 2691 2578 2766 
Q 2244 2841 1947 2841 
Q 1628 2841 1473 2761 
Q 1319 2681 1319 2516 
Q 1319 2381 1436 2309 
Q 1553 2238 1856 2203 
L 2053 2175 
Q 2913 2066 3209 1816 
Q 3506 1566 3506 1031 
Q 3506 472 3093 190 
Q 2681 -91 1863 -91 
Q 1516 -91 1145 -36 
Q 775 19 384 128 
L 384 978 
Q 719 816 1070 734 
Q 1422 653 1784 653 
Q 2113 653 2278 743 
Q 2444 834 2444 1013 
Q 2444 1163 2330 1236 
Q 2216 1309 1875 1350 
L 1678 1375 
Q 931 1469 631 1722 
Q 331 1975 331 2491 
Q 331 3047 712 3315 
Q 1094 3584 1881 3584 
Q 2191 3584 2531 3537 
Q 2872 3491 3272 3391 
z
" transform="scale(0.015625)"/>
      <path id="DejaVuSans-Bold-4b" d="M 4056 2131 
L 4056 0 
L 2931 0 
L 2931 347 
L 2931 1625 
Q 2931 2084 2911 2256 
Q 2891 2428 2841 2509 
Q 2775 2619 2662 2680 
Q 2550 2741 2406 2741 
Q 2056 2741 1856 2470 
Q 1656 2200 1656 1722 
L 1656 0 
L 538 0 
L 538 4863 
L 1656 4863 
L 1656 2988 
Q 1909 3294 2193 3439 
Q 2478 3584 2822 3584 
Q 3428 3584 3742 3212 
Q 4056 2841 4056 2131 
z
" transform="scale(0.015625)"/>
      <path id="DejaVuSans-Bold-57" d="M 1759 4494 
L 1759 3500 
L 2913 3500 
L 2913 2700 
L 1759 2700 
L 1759 1216 
Q 1759 972 1856 886 
Q 1953 800 2241 800 
L 2816 800 
L 2816 0 
L 1856 0 
Q 1194 0 917 276 
Q 641 553 641 1216 
L 641 2700 
L 84 2700 
L 84 3500 
L 641 3500 
L 641 4494 
L 1759 4494 
z
" transform="scale(0.015625)"/>
      <path id="DejaVuSans-Bold-45" d="M 2400 722 
Q 2759 722 2948 984 
Q 3138 1247 3138 1747 
Q 3138 2247 2948 2509 
Q 2759 2772 2400 2772 
Q 2041 2772 1848 2508 
Q 1656 2244 1656 1747 
Q 1656 1250 1848 986 
Q 2041 722 2400 722 
z
M 1656 2988 
Q 1888 3294 2169 3439 
Q 2450 3584 2816 3584 
Q 3463 3584 3878 3070 
Q 4294 2556 4294 1747 
Q 4294 938 3878 423 
Q 3463 -91 2816 -91 
Q 2450 -91 2169 54 
Q 1888 200 1656 506 
L 1656 0 
L 538 0 
L 538 4863 
L 1656 4863 
L 1656 2988 
z
" transform="scale(0.015625)"/>
      <path id="DejaVuSans-Bold-f" d="M 653 1209 
L 1778 1209 
L 1778 256 
L 1006 -909 
L 341 -909 
L 653 256 
L 653 1209 
z
" transform="scale(0.015625)"/>
      <path id="DejaVuSans-Bold-18" d="M 678 4666 
L 3669 4666 
L 3669 3781 
L 1638 3781 
L 1638 3059 
Q 1775 3097 1914 3117 
Q 2053 3138 2203 3138 
Q 3056 3138 3531 2711 
Q 4006 2284 4006 1522 
Q 4006 766 3489 337 
Q 2972 -91 2053 -91 
Q 1656 -91 1267 -14 
Q 878 63 494 219 
L 494 1166 
Q 875 947 1217 837 
Q 1559 728 1863 728 
Q 2300 728 2551 942 
Q 2803 1156 2803 1522 
Q 2803 1891 2551 2103 
Q 2300 2316 1863 2316 
Q 1603 2316 1309 2248 
Q 1016 2181 678 2041 
L 678 4666 
z
" transform="scale(0.015625)"/>
     </defs>
     <use xlink:href="#DejaVuSans-Bold-25"/>
     <use xlink:href="#DejaVuSans-Bold-48" transform="translate(76.21875 0)"/>
     <use xlink:href="#DejaVuSans-Bold-4f" transform="translate(144.046875 0)"/>
     <use xlink:href="#DejaVuSans-Bold-52" transform="translate(178.328125 0)"/>
     <use xlink:href="#DejaVuSans-Bold-4e" transform="translate(247.03125 0)"/>
     <use xlink:href="#DejaVuSans-Bold-3" transform="translate(313.53125 0)"/>
     <use xlink:href="#DejaVuSans-Bold-1c" transform="translate(348.34375 0)"/>
     <use xlink:href="#DejaVuSans-Bold-13" transform="translate(417.921875 0)"/>
     <use xlink:href="#DejaVuSans-Bold-72" transform="translate(487.5 0)"/>
     <use xlink:href="#DejaVuSans-Bold-3" transform="translate(537.5 0)"/>
     <use xlink:href="#DejaVuSans-Bold-4e" transform="translate(572.3125 0)"/>
     <use xlink:href="#DejaVuSans-Bold-44" transform="translate(638.8125 0)"/>
     <use xlink:href="#DejaVuSans-Bold-51" transform="translate(706.296875 0)"/>
     <use xlink:href="#DejaVuSans-Bold-44" transform="translate(777.484375 0)"/>
     <use xlink:href="#DejaVuSans-Bold-51" transform="translate(844.96875 0)"/>
     <use xlink:href="#DejaVuSans-Bold-3" transform="translate(916.15625 0)"/>
     <use xlink:href="#DejaVuSans-Bold-4f" transform="translate(950.96875 0)"/>
     <use xlink:href="#DejaVuSans-Bold-44" transform="translate(985.25 0)"/>
     <use xlink:href="#DejaVuSans-Bold-4f" transform="translate(1052.734375 0)"/>
     <use xlink:href="#DejaVuSans-Bold-58" transform="translate(1087.015625 0)"/>
     <use xlink:href="#DejaVuSans-Bold-3" transform="translate(1158.203125 0)"/>
     <use xlink:href="#DejaVuSans-Bold-14" transform="translate(1193.015625 0)"/>
     <use xlink:href="#DejaVuSans-Bold-1b" transform="translate(1262.59375 0)"/>
     <use xlink:href="#DejaVuSans-Bold-13" transform="translate(1332.171875 0)"/>
     <use xlink:href="#DejaVuSans-Bold-72" transform="translate(1401.75 0)"/>
     <use xlink:href="#DejaVuSans-Bold-3" transform="translate(1451.75 0)"/>
     <use xlink:href="#DejaVuSans-Bold-4e" transform="translate(1486.5625 0)"/>
     <use xlink:href="#DejaVuSans-Bold-4c" transform="translate(1553.0625 0)"/>
     <use xlink:href="#DejaVuSans-Bold-55" transform="translate(1587.34375 0)"/>
     <use xlink:href="#DejaVuSans-Bold-4c" transform="translate(1636.65625 0)"/>
     <use xlink:href="#DejaVuSans-Bold-1d" transform="translate(1670.9375 0)"/>
     <use xlink:href="#DejaVuSans-Bold-3" transform="translate(1710.921875 0)"/>
     <use xlink:href="#DejaVuSans-Bold-56" transform="translate(1745.734375 0)"/>
     <use xlink:href="#DejaVuSans-Bold-48" transform="translate(1805.25 0)"/>
     <use xlink:href="#DejaVuSans-Bold-4f" transform="translate(1873.078125 0)"/>
     <use xlink:href="#DejaVuSans-Bold-4c" transform="translate(1907.359375 0)"/>
     <use xlink:href="#DejaVuSans-Bold-56" transform="translate(1941.640625 0)"/>
     <use xlink:href="#DejaVuSans-Bold-4c" transform="translate(2001.15625 0)"/>
     <use xlink:href="#DejaVuSans-Bold-4b" transform="translate(2035.4375 0)"/>
     <use xlink:href="#DejaVuSans-Bold-3" transform="translate(2106.625 0)"/>
     <use xlink:href="#DejaVuSans-Bold-57" transform="translate(2141.4375 0)"/>
     <use xlink:href="#DejaVuSans-Bold-48" transform="translate(2189.234375 0)"/>
     <use xlink:href="#DejaVuSans-Bold-55" transform="translate(2257.0625 0)"/>
     <use xlink:href="#DejaVuSans-Bold-45" transform="translate(2306.375 0)"/>
     <use xlink:href="#DejaVuSans-Bold-48" transform="translate(2377.953125 0)"/>
     <use xlink:href="#DejaVuSans-Bold-56" transform="translate(2445.78125 0)"/>
     <use xlink:href="#DejaVuSans-Bold-44" transform="translate(2505.296875 0)"/>
     <use xlink:href="#DejaVuSans-Bold-55" transform="translate(2572.78125 0)"/>
     <use xlink:href="#DejaVuSans-Bold-3" transform="translate(2622.09375 0)"/>
     <use xlink:href="#DejaVuSans-Bold-13" transform="translate(2656.90625 0)"/>
     <use xlink:href="#DejaVuSans-Bold-f" transform="translate(2726.484375 0)"/>
     <use xlink:href="#DejaVuSans-Bold-18" transform="translate(2764.46875 0)"/>
     <use xlink:href="#DejaVuSans-Bold-72" transform="translate(2834.046875 0)"/>
    </g>
   </g>
   <g id="legend_1">
    <g id="line2d_23">
     <path d="M 61.905469 194.839156 
L 71.905469 194.839156 
L 81.905469 194.839156 
" style="fill: none; stroke: #2563eb; stroke-width: 1.8; stroke-linecap: square"/>
    </g>
    <g id="text_17">
     <!-- sudutTotal() library -->
     <g transform="translate(89.905469 198.339156) scale(0.1 -0.1)">
      <defs>
       <path id="DejaVuSans-37" d="M -19 4666 
L 3928 4666 
L 3928 4134 
L 2272 4134 
L 2272 0 
L 1638 0 
L 1638 4134 
L -19 4134 
L -19 4666 
z
" transform="scale(0.015625)"/>
       <path id="DejaVuSans-5c" d="M 2059 -325 
Q 1816 -950 1584 -1140 
Q 1353 -1331 966 -1331 
L 506 -1331 
L 506 -850 
L 844 -850 
Q 1081 -850 1212 -737 
Q 1344 -625 1503 -206 
L 1606 56 
L 191 3500 
L 800 3500 
L 1894 763 
L 2988 3500 
L 3597 3500 
L 2059 -325 
z
" transform="scale(0.015625)"/>
      </defs>
      <use xlink:href="#DejaVuSans-56"/>
      <use xlink:href="#DejaVuSans-58" transform="translate(52.09375 0)"/>
      <use xlink:href="#DejaVuSans-47" transform="translate(115.46875 0)"/>
      <use xlink:href="#DejaVuSans-58" transform="translate(178.953125 0)"/>
      <use xlink:href="#DejaVuSans-57" transform="translate(242.328125 0)"/>
      <use xlink:href="#DejaVuSans-37" transform="translate(281.53125 0)"/>
      <use xlink:href="#DejaVuSans-52" transform="translate(325.625 0)"/>
      <use xlink:href="#DejaVuSans-57" transform="translate(386.8125 0)"/>
      <use xlink:href="#DejaVuSans-44" transform="translate(426.015625 0)"/>
      <use xlink:href="#DejaVuSans-4f" transform="translate(487.296875 0)"/>
      <use xlink:href="#DejaVuSans-b" transform="translate(515.078125 0)"/>
      <use xlink:href="#DejaVuSans-c" transform="translate(554.09375 0)"/>
      <use xlink:href="#DejaVuSans-3" transform="translate(593.109375 0)"/>
      <use xlink:href="#DejaVuSans-4f" transform="translate(624.890625 0)"/>
      <use xlink:href="#DejaVuSans-4c" transform="translate(652.671875 0)"/>
      <use xlink:href="#DejaVuSans-45" transform="translate(680.453125 0)"/>
      <use xlink:href="#DejaVuSans-55" transform="translate(743.9375 0)"/>
      <use xlink:href="#DejaVuSans-44" transform="translate(785.046875 0)"/>
      <use xlink:href="#DejaVuSans-55" transform="translate(846.328125 0)"/>
      <use xlink:href="#DejaVuSans-5c" transform="translate(887.4375 0)"/>
     </g>
    </g>
    <g id="line2d_24">
     <path d="M 61.905469 209.839938 
L 71.905469 209.839938 
L 81.905469 209.839938 
" style="fill: none; stroke-dasharray: 5.18,2.24; stroke-dashoffset: 0; stroke: #111827; stroke-width: 1.4"/>
    </g>
    <g id="text_18">
     <!-- arah sebenarnya -->
     <g transform="translate(89.905469 213.339938) scale(0.1 -0.1)">
      <use xlink:href="#DejaVuSans-44"/>
      <use xlink:href="#DejaVuSans-55" transform="translate(61.28125 0)"/>
      <use xlink:href="#DejaVuSans-44" transform="translate(102.390625 0)"/>
      <use xlink:href="#DejaVuSans-4b" transform="translate(163.671875 0)"/>
      <use xlink:href="#DejaVuSans-3" transform="translate(227.046875 0)"/>
      <use xlink:href="#DejaVuSans-56" transform="translate(258.828125 0)"/>
      <use xlink:href="#DejaVuSans-48" transform="translate(310.921875 0)"/>
      <use xlink:href="#DejaVuSans-45" transform="translate(372.453125 0)"/>
      <use xlink:href="#DejaVuSans-48" transform="translate(435.9375 0)"/>
      <use xlink:href="#DejaVuSans-51" transform="translate(497.46875 0)"/>
      <use xlink:href="#DejaVuSans-44" transform="translate(560.84375 0)"/>
      <use xlink:href="#DejaVuSans-55" transform="translate(622.125 0)"/>
      <use xlink:href="#DejaVuSans-51" transform="translate(661.484375 0)"/>
      <use xlink:href="#DejaVuSans-5c" transform="translate(724.859375 0)"/>
      <use xlink:href="#DejaVuSans-44" transform="translate(784.046875 0)"/>
     </g>
    </g>
   </g>
  </g>
 </g>
 <defs>
  <clipPath id="p327be96abf">
   <rect x="52.905469" y="25.158281" width="446.4" height="199.584"/>
  </clipPath>
 </defs>
</svg>
